<?xml version="1.0" encoding="UTF-8" standalone="no"?><!DOCTYPE svg PUBLIC "-//W3C//DTD SVG 1.1//EN" "http://www.w3.org/Graphics/SVG/1.1/DTD/svg11.dtd"><svg width="100%" height="100%" viewBox="0 0 1438 1445" version="1.1" xmlns="http://www.w3.org/2000/svg" xmlns:xlink="http://www.w3.org/1999/xlink" xml:space="preserve" xmlns:serif="http://www.serif.com/" style="fill-rule:evenodd;clip-rule:evenodd;stroke-linejoin:round;stroke-miterlimit:2;"><rect id="Export" x="0" y="0" width="1437.92" height="1445" style="fill:none;"/><clipPath id="_clip1"><rect x="0" y="0" width="1437.92" height="1445"/></clipPath><g clip-path="url(#_clip1)"><g><path d="M889.323,46.231c14.083,-28.323 42.987,-46.231 74.619,-46.231c116.684,0 390.641,0 390.641,0c28.849,-0 55.645,14.92 70.839,39.444c15.194,24.523 16.624,55.16 3.78,80.991c-139.001,279.554 -483.268,971.93 -635.65,1278.4c-14.083,28.323 -42.987,46.232 -74.619,46.232c-31.631,-0 -60.535,-17.909 -74.618,-46.232c-152.382,-306.466 -496.649,-998.842 -635.65,-1278.4c-12.844,-25.831 -11.414,-56.468 3.78,-80.991c15.194,-24.524 41.99,-39.444 70.839,-39.444l390.641,0c31.632,-0 60.536,17.908 74.619,46.231c34.526,69.439 95.771,192.613 95.771,192.613c14.083,28.323 42.987,46.231 74.618,46.231c31.632,-0 60.536,-17.908 74.619,-46.231c-0,-0 61.245,-123.174 95.771,-192.613Z" style="fill:#fff;"/><clipPath id="_clip2"><path d="M644.315,1398.83c14.083,28.323 42.987,46.232 74.618,46.232c31.632,-0 60.536,-17.909 74.619,-46.232c152.382,-306.466 496.649,-998.842 635.65,-1278.4c12.844,-25.831 11.414,-56.468 -3.78,-80.991c-15.194,-24.524 -41.99,-39.444 -70.839,-39.444c-291.69,0 -979.609,0 -1271.3,0c-28.849,-0 -55.645,14.92 -70.839,39.444c-15.194,24.523 -16.624,55.16 -3.78,80.991c139.001,279.554 483.268,971.93 635.65,1278.4Z"/></clipPath><g clip-path="url(#_clip2)"><path d="M309.234,0l-360.452,0l768.881,1548.9l360.452,0l-768.881,-1548.9Z" style="fill:#e7e7e7;"/></g></g></g></svg>